#!OML:ASF H:\MichaelJackson\Top Level 1\Subject 1\Session 1\male.ASF
:FULLY-SPECIFIED
:DEGREES
985
root 1.11542 15.153 32.4948 5.37809 -4.67268 364.124
lowerback -1.55952 -0.419402 0.711649
upperback -0.71732 -0.562807 -5.90918
thorax 0.0696762 -0.297417 -6.54228
lowerneck -6.66561 1.13655 5.87464
upperneck 1.06765 0.934706 3.32563
head 1.46878 0.569495 0.0806115
rclavicle -1.19271e-015 -1.90833e-014
rhumerus 3.74617 -25.0279 -0.173623
rradius 28.014
rwrist -11.3028
rhand -31.4609 -44.6274
rfingers 7.12502
rthumb -4.72817 -794.555
lclavicle -1.19271e-015 -1.90833e-014
lhumerus -58.3302 -45.1106 114.756
lradius 55.0431
lwrist 25.17
lhand 37.2967 24.4826
lfingers 7.12502
lthumb 60.119 38.1373
rfemur -32.9601 -15.4958 -6.26304
rtibia 50.8354
rfoot -22.6051 4.99797
rtoes -41.8972
lfemur 8.69963 1.76851 5.16666
ltibia 3.49861e-014
lfoot -30.105 -11.7143
ltoes -33.8762
986
root 1.11855 15.1547 32.4893 5.34259 -4.66345 364.111
lowerback -1.53974 -0.39793 0.701922
upperback -0.714293 -0.534183 -5.88792
thorax 0.0654268 -0.282899 -6.51338
lowerneck -6.71503 1.14802 5.85743
upperneck 1.1243 0.944732 3.33091
head 1.49586 0.576908 0.085849
rclavicle -1.43125e-014 -4.29375e-014
rhumerus 3.74437 -24.9432 -0.171661
rradius 27.992
rwrist -11.2396
rhand -31.4687 -44.5922
rfingers 7.12502
rthumb -4.73569 -794.519
lclavicle -1.43125e-014 -4.29375e-014
lhumerus -58.279 -45.082 114.769
lradius 55.0357
lwrist 25.0651
lhand 37.2753 24.4433
lfingers 7.12502
lthumb 60.1007 38.1175
rfemur -32.8994 -15.5292 -6.25476
rtibia 50.7591
rfoot -22.6325 4.98807
rtoes -42.0079
lfemur 8.70812 1.74708 5.16973
ltibia -4.13472e-014
lfoot -30.1073 -11.6943
ltoes -33.8964
987
root 1.12134 15.1562 32.4837 5.30618 -4.65305 364.099
lowerback -1.51505 -0.377689 0.687642
upperback -0.712887 -0.507356 -5.8686
thorax 0.0565268 -0.269394 -6.48392
lowerneck -6.75716 1.15904 5.83993
upperneck 1.17522 0.954872 3.34177
head 1.5198 0.584231 0.0928611
rclavicle 1.98785e-015 -1.59028e-014
rhumerus 3.74429 -24.8583 -0.172079
rradius 27.976
rwrist -11.1831
rhand -31.4628 -44.5331
rfingers 7.12502
rthumb -4.73004 -794.46
lclavicle 1.98785e-015 -1.59028e-014
lhumerus -58.2578 -45.091 114.808
lradius 55.035
lwrist 24.9953
lhand 37.2519 24.4062
lfingers 7.12502
lthumb 60.0807 38.1015
rfemur -32.84 -15.56 -6.24832
rtibia 50.6892
rfoot -22.6649 4.9668
rtoes -42.1295
lfemur 8.71747 1.72398 5.17327
ltibia -5.08889e-014
lfoot -30.111 -11.6748
ltoes -33.9127
988
root 1.1238 15.1573 32.4781 5.2697 -4.63928 364.088
lowerback -1.48754 -0.359459 0.669615
upperback -0.712469 -0.483304 -5.85243
thorax 0.0446671 -0.257355 -6.4557
lowerneck -6.78983 1.16834 5.82499
upperneck 1.21788 0.963487 3.35806
head 1.53935 0.590558 0.101043
rclavicle -1.22253e-014 0
rhumerus 3.74548 -24.7764 -0.17803
rradius 27.9644
rwrist -11.1351
rhand -31.4451 -44.4536
rfingers 7.12502
rthumb -4.71295 -794.381
lclavicle -1.22253e-014 0
lhumerus -58.2643 -45.1387 114.869
lradius 55.0398
lwrist 24.9687
lhand 37.2319 24.379
lfingers 7.12502
lthumb 60.0636 38.0924
rfemur -32.7814 -15.5868 -6.24436
rtibia 50.6256
rfoot -22.6997 4.93313
rtoes -42.2585
lfemur 8.7258 1.6976 5.17712
ltibia 1.90833e-014
lfoot -30.1159 -11.6552
ltoes -33.9256
989
root 1.12593 15.1581 32.4726 5.23431 -4.61918 364.079
lowerback -1.45993 -0.344405 0.649265
upperback -0.712127 -0.463494 -5.83997
thorax 0.0321371 -0.247471 -6.43017
lowerneck -6.81237 1.1753 5.81566
upperneck 1.25052 0.969632 3.37816
head 1.55385 0.59534 0.109338
rclavicle -1.44119e-014 -1.27222e-014
rhumerus 3.74716 -24.6961 -0.190436
rradius 27.9554
rwrist -11.0977
rhand -31.4182 -44.361
rfingers 7.12502
rthumb -4.68695 -794.289
lclavicle -1.44119e-014 -1.27222e-014
lhumerus -58.2928 -45.2194 114.946
lradius 55.0484
lwrist 24.9847
lhand 37.2189 24.366
lfingers 7.12502
lthumb 60.0525 38.091
rfemur -32.7226 -15.6104 -6.24252
rtibia 50.5679
rfoot -22.7348 4.88787
rtoes -42.3909
lfemur 8.73057 1.66582 5.18169
ltibia 2.22639e-014
lfoot -30.1217 -11.6343
ltoes -33.9363
990
root 1.12778 15.1587 32.4672 5.20119 -4.5899 364.068
lowerback -1.43529 -0.333642 0.62914
upperback -0.71067 -0.44932 -5.83089
thorax 0.0217046 -0.240378 -6.40848
lowerneck -6.82571 1.17968 5.8146
upperneck 1.27245 0.972845 3.39928
head 1.56325 0.598289 0.116394
rclavicle 9.64106e-015 -1.90833e-014
rhumerus 3.74859 -24.6155 -0.209157
rradius 27.9474
rwrist -11.0706
rhand -31.3845 -44.2641
rfingers 7.12502
rthumb -4.65437 -794.193
lclavicle 9.64106e-015 -1.90833e-014
lhumerus -58.3347 -45.3232 115.03
lradius 55.0583
lwrist 25.0354
lhand 37.2154 24.3665
lfingers 7.12502
lthumb 60.0496 38.0947
rfemur -32.6626 -15.6334 -6.24093
rtibia 50.5153
rfoot -22.7682 4.83409
rtoes -42.5214
lfemur 8.72965 1.6267 5.18852
ltibia -3.65764e-014
lfoot -30.1283 -11.6091
ltoes -33.9477
991
root 1.12939 15.1592 32.4621 5.17158 -4.54935 364.056
lowerback -1.41603 -0.327975 0.611632
upperback -0.707309 -0.441784 -5.82432
thorax 0.0154336 -0.236537 -6.39113
lowerneck -6.83133 1.18164 5.8233
upperneck 1.28368 0.973166 3.41841
head 1.56785 0.599381 0.121025
rclavicle 2.33572e-015 3.97569e-014
rhumerus 3.74912 -24.5326 -0.232932
rradius 27.9392
rwrist -11.0528
rhand -31.3467 -44.1718
rfingers 7.12502
rthumb -4.61794 -794.101
lclavicle 2.33572e-015 3.97569e-014
lhumerus -58.3809 -45.4375 115.112
lradius 55.0674
lwrist 25.1071
lhand 37.2213 24.3762
lfingers 7.12502
lthumb 60.0545 38.0991
rfemur -32.6009 -15.6586 -6.23735
rtibia 50.4669
rfoot -22.798 4.77557
rtoes -42.6455
lfemur 8.72107 1.579 5.19918
ltibia -1.11319e-014
lfoot -30.1354 -11.5772
ltoes -33.9618
992
root 1.13085 15.1597 32.4572 5.14635 -4.49652 364.038
lowerback -1.40404 -0.327686 0.599009
upperback -0.701311 -0.4412 -5.81895
thorax 0.0151039 -0.236068 -6.37806
lowerneck -6.83182 1.18153 5.84162
upperneck 1.28555 0.970905 3.433
head 1.56856 0.598781 0.122476
rclavicle -1.10822e-014 -7.95139e-015
rhumerus 3.74812 -24.4473 -0.259816
rradius 27.9307
rwrist -11.0436
rhand -31.3081 -44.0896
rfingers 7.12502
rthumb -4.58066 -794.02
lclavicle -1.10822e-014 -7.95139e-015
lhumerus -58.4227 -45.549 115.184
lradius 55.0735
lwrist 25.1847
lhand 37.2357 24.3889
lfingers 7.12502
lthumb 60.0669 38.0988
rfemur -32.5373 -15.6882 -6.22945
rtibia 50.4217
rfoot -22.823 4.71624
rtoes -42.7593
lfemur 8.70391 1.5223 5.21523
ltibia 2.06736e-014
lfoot -30.1427 -11.5357
ltoes -33.9816
993
root 1.13221 15.1602 32.4526 5.12575 -4.432 364.015
lowerback -1.39947 -0.332204 0.592466
upperback -0.692645 -0.446805 -5.81346
thorax 0.0209294 -0.238582 -6.3685
lowerneck -6.82944 1.17959 5.8682
upperneck 1.28 0.966304 3.4411
head 1.56642 0.59664 0.120382
rclavicle 9.34288e-015 3.18055e-014
rhumerus 3.74465 -24.3614 -0.287339
rradius 27.9225
rwrist -11.0416
rhand -31.2714 -44.0197
rfingers 7.12502
rthumb -4.54518 -793.951
lclavicle 9.34288e-015 3.18055e-014
lhumerus -58.4541 -45.6472 115.24
lradius 55.0756
lwrist 25.2554
lhand 37.2552 24.3987
lfingers 7.12502
lthumb 60.0836 38.0909
rfemur -32.4721 -15.7228 -6.21565
rtibia 50.3791
rfoot -22.8418 4.65935
rtoes -42.8594
lfemur 8.67841 1.45732 5.23763
ltibia 3.65764e-014
lfoot -30.1499 -11.4829
ltoes -34.0086
994
root 1.13352 15.1608 32.4484 5.10951 -4.35815 363.986
lowerback -1.40186 -0.340211 0.5921
upperback -0.681483 -0.456856 -5.80709
thorax 0.0326855 -0.243205 -6.3617
lowerneck -6.82673 1.17607 5.90001
upperneck 1.2698 0.959606 3.44262
head 1.56275 0.593176 0.115258
rclavicle -1.44119e-015 -6.67916e-014
rhumerus 3.73731 -24.2778 -0.312844
rradius 27.9163
rwrist -11.0453
rhand -31.2393 -43.9616
rfingers 7.12502
rthumb -4.51425 -793.894
lclavicle -1.44119e-015 -6.67916e-014
lhumerus -58.4715 -45.725 115.278
lradius 55.0739
lwrist 25.3108
lhand 37.2756 24.4013
lfingers 7.12502
lthumb 60.101 38.0752
rfemur -32.4061 -15.761 -6.19579
rtibia 50.3386
rfoot -22.8535 4.60707
rtoes -42.9441
lfemur 8.64614 1.3861 5.266
ltibia 1.59028e-015
lfoot -30.1565 -11.4186
ltoes -34.0435
995
root 1.13481 15.1615 32.4444 5.09678 -4.27894 363.953
lowerback -1.40919 -0.349701 0.596398
upperback -0.668563 -0.468735 -5.79943
thorax 0.0487868 -0.248652 -6.35631
lowerneck -6.82601 1.17108 5.9329
upperneck 1.25813 0.950952 3.43917
head 1.55898 0.588602 0.108332
rclavicle -2.02263e-014 -1.59028e-015
rhumerus 3.72457 -24.1999 -0.333607
rradius 27.9136
rwrist -11.053
rhand -31.2135 -43.9118
rfingers 7.12502
rthumb -4.48927 -793.844
lclavicle -2.02263e-014 -1.59028e-015
lhumerus -58.4753 -45.7805 115.299
lradius 55.07
lwrist 25.3496
lhand 37.2929 24.3981
lfingers 7.12502
lthumb 60.1157 38.0563
rfemur -32.3409 -15.7994 -6.17096
rtibia 50.3002
rfoot -22.8574 4.56002
rtoes -43.0125
lfemur 8.60966 1.31181 5.29904
ltibia 1.59028e-014
lfoot -30.1622 -11.3446
ltoes -34.0853
996
root 1.13605 15.1623 32.4408 5.08626 -4.19922 363.917
lowerback -1.41867 -0.358387 0.602358
upperback -0.654879 -0.479466 -5.79078
thorax 0.0670169 -0.253472 -6.35083
lowerneck -6.82933 1.16463 5.96308
upperneck 1.24848 0.94024 3.43298
head 1.55655 0.583031 0.100949
rclavicle -1.31198e-014 -3.65764e-014
rhumerus 3.70486 -24.1299 -0.346897
rradius 27.9149
rwrist -11.062
rhand -31.194 -43.8658
rfingers 7.12502
rthumb -4.4705 -793.799
lclavicle -1.31198e-014 -3.65764e-014
lhumerus -58.4687 -45.8156 115.307
lradius 55.0668
lwrist 25.3742
lhand 37.303 24.3926
lfingers 7.12502
lthumb 60.1243 38.0417
rfemur -32.278 -15.8331 -6.14365
rtibia 50.2639
rfoot -22.8536 4.51759
rtoes -43.065
lfemur 8.5722 1.23812 5.33418
ltibia 5.40694e-014
lfoot -30.1668 -11.2647
ltoes -34.132
997
root 1.13722 15.1631 32.4374 5.07668 -4.12355 363.881
lowerback -1.4277 -0.364168 0.606849
upperback -0.641558 -0.486318 -5.78195
thorax 0.0850811 -0.256343 -6.34425
lowerneck -6.83805 1.15673 5.98721
upperneck 1.24432 0.927394 3.42715
head 1.55679 0.576609 0.0946616
rclavicle 7.85199e-015 3.18055e-014
rhumerus 3.67698 -24.0698 -0.351022
rradius 27.9201
rwrist -11.0685
rhand -31.1801 -43.8196
rfingers 7.12502
rthumb -4.45707 -793.753
lclavicle 7.85199e-015 3.18055e-014
lhumerus -58.4575 -45.8362 115.308
lradius 55.0679
lwrist 25.3903
lhand 37.3028 24.3907
lfingers 7.12502
lthumb 60.1242 38.0399
rfemur -32.2189 -15.8581 -6.11678
rtibia 50.2305
rfoot -22.8427 4.47838
rtoes -43.1034
lfemur 8.53675 1.16846 5.36866
ltibia 2.06736e-014
lfoot -30.1703 -11.1839
ltoes -34.1805
998
root 1.13827 15.1639 32.4343 5.06684 -4.05581 363.849
lowerback -1.43351 -0.365374 0.606572
upperback -0.62978 -0.487139 -5.7741
thorax 0.100472 -0.256241 -6.33586
lowerneck -6.85288 1.14739 6.00378
upperneck 1.24834 0.912314 3.42386
head 1.56068 0.569424 0.0904096
rclavicle -8.94531e-015 4.13472e-014
rhumerus 3.64003 -24.0196 -0.344862
rradius 27.9276
rwrist -11.0701
rhand -31.1696 -43.7719
rfingers 7.12502
rthumb -4.44689 -793.705
lclavicle -8.94531e-015 4.13472e-014
lhumerus -58.4488 -45.85 115.309
lradius 55.0767
lwrist 25.4028
lhand 37.2901 24.397
lfingers 7.12502
lthumb 60.1133 38.0577
rfemur -32.1649 -15.8708 -6.09334
rtibia 50.2004
rfoot -22.8259 4.44076
rtoes -43.1297
lfemur 8.5057 1.10562 5.39973
ltibia -4.45278e-014
lfoot -30.1723 -11.1079
ltoes -34.2268
999
root 1.13915 15.1647 32.4315 5.05606 -3.99838 363.821
lowerback -1.43428 -0.361154 0.599762
upperback -0.620526 -0.480856 -5.76821
thorax 0.111281 -0.252675 -6.32563
lowerneck -6.87385 1.13684 6.01248
upperneck 1.26246 0.895163 3.42486
head 1.56884 0.561662 0.0888041
rclavicle 6.95746e-015 4.77083e-015
rhumerus 3.59388 -23.9784 -0.328181
rradius 27.9354
rwrist -11.0655
rhand -31.1592 -43.7214
rfingers 7.12502
rthumb -4.43685 -793.655
lclavicle 6.95746e-015 4.77083e-015
lhumerus -58.4486 -45.8647 115.316
lradius 55.0959
lwrist 25.4141
lhand 37.2643 24.4141
lfingers 7.12502
lthumb 60.0914 38.0982
rfemur -32.117 -15.87 -6.0749
rtibia 50.1743
rfoot -22.8049 4.4035
rtoes -43.1466
lfemur 8.48038 1.05134 5.42607
ltibia 3.97569e-014
lfoot -30.1727 -11.0422
ltoes -34.2677
